<?xml version="1.0" encoding="utf-8"?>
<!-- Generator: Adobe Illustrator 26.5.0, SVG Export Plug-In . SVG Version: 6.00 Build 0)  -->
<svg version="1.1" id="Capa_1" xmlns="http://www.w3.org/2000/svg" xmlns:xlink="http://www.w3.org/1999/xlink" x="0px" y="0px"
	 viewBox="0 0 1200 194.93" style="enable-background:new 0 0 1200 194.93;" xml:space="preserve">
<style type="text/css">
	.st0{fill:#EA78F4;}
</style>
<g>
	<path class="st0" d="M1137.2,156.15c-0.13-0.29-0.27-0.56-0.41-0.82l0.73,1.5C1137.41,156.6,1137.3,156.37,1137.2,156.15z"/>
</g>
<g>
	<path class="st0" d="M525,91.93c0.73-1.2,1.36-2.11,1.87-3.09c9.05-17.15,8.85-34.04-2.57-49.93
		c-9.5-13.22-23.58-17.75-39.16-17.89c-26.92-0.24-53.85-0.07-80.77-0.06c-1.26,0-2.53,0.17-4.01,0.27c0,9.26,0,18.51,0,27.75h37.69
		c3.64,0,7.1,0,10.55,0c9.74,0,19.48-0.1,29.21,0.05c10.61,0.15,18.27,7.26,18.43,16.8c0.15,9.34-7.05,16.8-17.57,17.1
		c-13.52,0.39-27.06,0.1-41.09,0.1h-37.22c0,9.12,0,18.23,0,27.34h39.35c0.02,0,0.03,0,0.05,0c17.03-0.02,34.06-0.09,51.09,0.01
		c9.88,0.06,16.57,4.96,18.6,13.22c2.53,10.29-4.05,19.9-14.62,20.94c-4.66,0.46-9.39,0.32-14.09,0.33
		c-14.26,0.04-28.53,0.01-43.38,0.01h-36.98c0,9.96,0,19.92,0,29.89c35.14,0,69.87,0.81,104.53-0.24
		c30.3-0.92,49.25-32.34,37.94-60.52C539.16,104.86,533.13,97.71,525,91.93z"/>
</g>
<g>
	<path class="st0" d="M690.19,112.8c27.02-12.94,36.28-46.02,19.66-70.93C699.61,26.53,684.25,21.1,666.64,21
		c-29.05-0.17-58.11-0.05-87.16-0.04c-1.43,0-2.85,0.14-4.64,0.23c0,10.36,0,20.69,0,31.01h41.4v0.03
		c16.15,0.14,32.32-0.08,48.41,0.9c8.96,0.54,14.74,8.02,14.85,15.95c0.11,7.91-6.07,16.08-14.93,16.51
		c-16.96,0.82-33.99,0.28-51.23,0.25h-38.5c0,29.64,0,59.2,0,88.81c12.34,0,24.39,0,36.96,0c0-19.29,0-38.19,0-57.53
		c10.72,0,20.91,0.14,31.1-0.08c3.18-0.07,4.96,1.07,6.71,3.59c11.74,16.93,23.68,33.72,35.43,50.65c1.83,2.64,3.73,3.9,7.1,3.84
		c12.17-0.21,24.35-0.07,36.52-0.1c1.51,0,3.02-0.21,5.42-0.39c-15.94-20.48-31.3-40.23-46.87-60.23
		C688.53,113.69,689.34,113.21,690.19,112.8z"/>
</g>
<g>
	<path class="st0" d="M143.35,21.2c0,20.47,0,40.69,0,60.97c-28.48,0-56.45,0-85.01,0c0-20.47,0-40.65,0-60.97
		c-12.52,0-24.45,0-36.67,0c0,51.27,0,102.3,0,153.49c12.28,0,24.33,0,36.98,0c0-20.51,0-40.68,0-60.87c28.46,0,56.32,0,84.71,0
		c0,20.31,0,40.35,0,60.86c12.75,0,24.66,0,36.56,0c0-40.74,0-62.22,0-102.65l-36.38-50.66C143.49,21.37,143.42,21.2,143.35,21.2z"
		/>
</g>
<g>
	<path class="st0" d="M757.89,174.67c12.37,0,24.29,0,36.32,0c0-51.35,0-102.32,0-153.46c-12.29,0-24.22,0-36.32,0
		C757.89,72.59,757.89,123.68,757.89,174.67z"/>
</g>
<g>
	<path class="st0" d="M916.29,21.25c-27.67-0.26-55.35-0.07-83.02-0.06c-1.26,0-2.52,0.11-4.09,0.18c0,10.23,0,20.43,0,30.62h45.51
		v0.01c13.13,0,26.26-0.02,39.38,0.01c22.29,0.04,38.39,13.77,41.83,35.95c2.18,14.04,0.44,27.48-7.76,39.48
		c-7.37,10.79-17.98,16.25-30.84,16.56c-16.5,0.4-33.01,0.11-49.51,0.1c-0.18,0-0.37-0.04-0.57-0.1h-38.04c0,10.18,0,20.36,0,30.56
		c1.31,0.11,2.4,0.29,3.49,0.29c28.48,0,56.97,0.21,85.45-0.17c7.68-0.1,15.57-1.12,22.95-3.2c27.62-7.78,45.13-26.21,51.67-53.87
		c6.79-28.71,0.47-54.7-21.01-75.79C956.46,26.8,937.14,21.45,916.29,21.25z"/>
</g>
<g>
	<path class="st0" d="M1111.23,19.11c-11.17,0-22.31,0.12-33.46-0.08c-3.11-0.06-4.45,1.09-5.73,3.79
		c-19.84,41.74-39.81,83.42-59.73,125.11c-4.16,8.71-8.28,17.43-12.77,26.87c13.07,0,25.32,0.06,37.58-0.12
		c0.99-0.01,2.3-1.55,2.88-2.68c2.73-5.32,5.04-10.86,7.98-16.05c0.11-0.19,0.24-0.38,0.39-0.57l16.14-33.93
		c9.32-19.48,18.4-38.43,27.91-58.3c9.45,19.69,18.51,38.59,27.96,58.3l16.39,33.87c0.14,0.26,0.28,0.53,0.41,0.82
		c0.1,0.23,0.21,0.45,0.31,0.68l7.04,14.54c0.08,0.16,0.16,0.32,0.25,0.48c0.63,1.22,2.12,2.82,3.23,2.84
		c12.1,0.2,24.2,0.13,37.38,0.13C1160.38,122.3,1135.87,70.83,1111.23,19.11z"/>
</g>
<g>
	<g>
		<path class="st0" d="M308.69,119.83v-1.79c0,0.01,0,0.02,0,0.03C308.69,118.67,308.69,119.24,308.69,119.83z"/>
		<path class="st0" d="M290.42,84.09c-0.27-0.36-0.58-0.8-0.85-1.18c0.3,0.43,0.5,0.71,0.84,1.2
			C290.41,84.1,290.41,84.09,290.42,84.09z"/>
		<path class="st0" d="M308.69,119.83c0-0.59,0-1.17,0-1.76c0-0.01,0-0.02,0-0.03v-8.55c0,0,0-0.01,0-0.01
			c-11.1-15.48-13.26-18.47-18.27-25.39c-0.01,0-0.01,0.01-0.01,0.01c-0.35-0.49-0.55-0.77-0.84-1.2
			c-2.8-3.85-6.44-8.88-12.89-17.77l0.07-0.03c-10.06-13.91-20.34-28.09-29.67-40.86c-1.75-2.4-3.37-3.37-6.29-3.32
			c-10.07,0.18-16.94,0.07-27,0.07c-2.67,0-5.35,0-8.83,0c1.44,2.17,2.26,3.51,3.19,4.78c20.27,27.97,40.61,55.9,60.73,83.98
			c1.64,2.29,2.65,5.55,2.69,8.38c0.14,9.67,0.16,47.32,0.15,56.99l37.01-0.18c-0.22,0-0.43,0-0.48,0c0.05,0,0.26,0,0.48,0
			c0-2.26,0-4.01,0-5.77c0-15.34-0.03-30.56-0.03-46.01h-0.01V119.83z"/>
		<path class="st0" d="M338.28,21.12c-1.5,0.02-3.42,1.53-4.38,2.87c-6.7,9.27-13.91,18.93-20.35,28.04
			c-0.85,1.19-1.62,2.22-2.45,3.38c8.33,12.59,6.88,10.21,17.88,26.65c0.37,0.55,0.88,1.25,1.29,1.82
			c14.11-19.53,28.23-39.05,42.36-58.56c0.86-1.19,1.59-2.47,2.76-4.33C361.22,20.99,351.42,20.9,338.28,21.12z"/>
		<path class="st0" d="M289.56,82.91c-0.92-1.3-1.8-2.56-2.57-3.62c-3.3-4.58-6.81-9.43-10.25-14.18l-0.07,0.03
			C283.12,74.03,286.76,79.06,289.56,82.91z"/>
		<path class="st0" d="M308.69,123.16L308.69,123.16c0.01-1.12,0-2.21,0-3.33V123.16z"/>
	</g>
</g>
</svg>
